<?xml version="1.0" ?><svg height="60px" version="1.1" viewBox="0 0 60 60" width="60px" xmlns="http://www.w3.org/2000/svg" xmlns:xlink="http://www.w3.org/1999/xlink"><title/><desc/><defs/><g fill="none" fill-rule="evenodd" id="People" stroke="none" stroke-width="1"><g fill="#000000" id="Icon-77"><path d="M35.8188,18.4268 C36.0058,18.6938 36.0508,19.0348 35.9398,19.3418 L27.9398,41.3418 C27.7918,41.7478 27.4088,41.9998 26.9998,41.9998 C26.8858,41.9998 26.7708,41.9808 26.6578,41.9398 C26.1388,41.7508 25.8718,41.1778 26.0598,40.6578 L33.5718,19.9998 L24.9998,19.9998 C24.4478,19.9998 23.9998,19.5528 23.9998,18.9998 C23.9998,18.4478 24.4478,17.9998 24.9998,17.9998 L34.9998,17.9998 C35.3258,17.9998 35.6318,18.1588 35.8188,18.4268 M29.9998,57.9998 C14.5608,57.9998 1.9998,45.4398 1.9998,29.9998 C1.9998,14.5608 14.5608,1.9998 29.9998,1.9998 C45.4398,1.9998 57.9998,14.5608 57.9998,29.9998 C57.9998,45.4398 45.4398,57.9998 29.9998,57.9998 M29.9998,-0.0002 C13.4578,-0.0002 -0.0002,13.4578 -0.0002,29.9998 C-0.0002,46.5418 13.4578,59.9998 29.9998,59.9998 C46.5418,59.9998 59.9998,46.5418 59.9998,29.9998 C59.9998,13.4578 46.5418,-0.0002 29.9998,-0.0002" id="number-seven"/></g></g></svg>